<svg xmlns="http://www.w3.org/2000/svg" viewBox="0 0 88 48.3"><g data-name="Layer 2"><g data-name="Layer 1"><path d="M8 12.47a.9.9 0 0 0-.84.55l-1.61 3.84a.36.36 0 0 1-.34.22L1 16.7H.91a.91.91 0 0 0-.6 1.59l3.17 2.78a.37.37 0 0 1 .1.42L2 25.25a.92.92 0 0 0 .84 1.27 1 1 0 0 0 .47-.13l3.5-2.08a.35.35 0 0 1 .19-.06.35.35 0 0 1 .25.1l3.16 2.76a.88.88 0 0 0 .59.23.92.92 0 0 0 .9-1.12l-.9-4.09a.37.37 0 0 1 .17-.4l3.59-2.13a.91.91 0 0 0-.39-1.69l-4.15-.38a.35.35 0 0 1-.33-.29l-.93-4.06a.9.9 0 0 0-.96-.71M18.8 2.75a.69.69 0 0 0-.64.42l-1.36 3a.3.3 0 0 1-.27.17l-3.26-.38h-.09a.72.72 0 0 0-.48 1.24l2.42 2.23a.29.29 0 0 1 .06.34l-1.36 2.83a.72.72 0 0 0 .65 1 .69.69 0 0 0 .35-.1L17.6 12h.14a.27.27 0 0 1 .2.07l2.41 2.23a.65.65 0 0 0 .48.19.71.71 0 0 0 .7-.85l-.63-3.21a.28.28 0 0 1 .14-.31l2.85-1.59a.71.71 0 0 0-.27-1.33l-3.24-.38a.31.31 0 0 1-.25-.24l-.63-3.25a.71.71 0 0 0-.7-.58M37.94 0a1.07 1.07 0 0 0-.87.45l-2.94 4a.45.45 0 0 1-.36.19.32.32 0 0 1-.14 0l-4.78-1.59A1.12 1.12 0 0 0 28.5 3a1.09 1.09 0 0 0-.88 1.73l2.94 4.1a.47.47 0 0 1 0 .53l-2.89 3.94a1.09 1.09 0 0 0 .87 1.7 1 1 0 0 0 .34 0l4.66-1.48h.14a.45.45 0 0 1 .36.19L37 17.76a1.09 1.09 0 0 0 2-.63v-5a.45.45 0 0 1 .31-.43l4.77-1.51a1.09 1.09 0 0 0 0-2.07l-4.76-1.6A.44.44 0 0 1 39 6.1v-5A1.1 1.1 0 0 0 37.94 0M56.12 9.22a1.28 1.28 0 0 0-1.2.79l-2.34 5.46a.52.52 0 0 1-.49.32H52l-6-.56h-.14a1.3 1.3 0 0 0-.84 2.28l4.51 4a.52.52 0 0 1 .14.61l-2.3 5.36a1.31 1.31 0 0 0 1.2 1.82 1.28 1.28 0 0 0 .66-.19l5-3a.52.52 0 0 1 .27-.07.51.51 0 0 1 .35.13l4.5 4a1.27 1.27 0 0 0 .85.33 1.31 1.31 0 0 0 1.29-1.59L60.26 23a.54.54 0 0 1 .25-.58l5.13-3A1.3 1.3 0 0 0 65.1 17l-5.93-.56a.53.53 0 0 1-.47-.41l-1.31-5.82a1.28 1.28 0 0 0-1.27-1M81.22 11a1 1 0 0 0-.86.46l-2.74 3.93a.42.42 0 0 1-.35.18.27.27 0 0 1-.13 0l-4.63-1.42a1.12 1.12 0 0 0-.32 0 1 1 0 0 0-.82 1.68l2.91 3.88a.41.41 0 0 1 0 .5L71.6 24a1 1 0 0 0 .85 1.65.86.86 0 0 0 .35-.06l4.45-1.51a.35.35 0 0 1 .14 0 .42.42 0 0 1 .34.17l2.91 3.87a1 1 0 0 0 .83.42 1 1 0 0 0 1.06-1.07l-.08-4.83a.44.44 0 0 1 .29-.41l4.55-1.56a1 1 0 0 0 0-2l-4.6-1.41a.43.43 0 0 1-.3-.41L82.28 12a1 1 0 0 0-1.06-1M76.42 30.78a1 1 0 0 0-.85.45l-2.75 3.94a.41.41 0 0 1-.35.18.3.3 0 0 1-.13 0l-4.62-1.42a1.25 1.25 0 0 0-.32 0 1.06 1.06 0 0 0-.83 1.69l2.92 3.88a.44.44 0 0 1 0 .5l-2.7 3.86a1.05 1.05 0 0 0 .85 1.65 1.13 1.13 0 0 0 .36-.06l4.44-1.52h.14a.42.42 0 0 1 .34.17l2.91 3.87a1 1 0 0 0 .83.42 1 1 0 0 0 1.06-1.07l-.08-4.83a.43.43 0 0 1 .29-.41l4.55-1.56a1 1 0 0 0 0-2L77.86 37a.41.41 0 0 1-.3-.4l-.08-4.8a1 1 0 0 0-1.06-1M57.08 32.49a.91.91 0 0 0-.79.46l-2 3.64a.38.38 0 0 1-.32.19h-.08l-4.12-.85h-.19a.92.92 0 0 0-.67 1.53l2.85 3.12a.36.36 0 0 1 0 .43l-2 3.56a.91.91 0 0 0 1.17 1.28l3.72-1.68a.45.45 0 0 1 .16 0 .36.36 0 0 1 .27.12l2.84 3.11a.92.92 0 0 0 .67.3.91.91 0 0 0 .91-1l-.5-4.25a.39.39 0 0 1 .22-.39l3.81-1.72a.91.91 0 0 0-.19-1.72l-4.1-.84a.39.39 0 0 1-.3-.33L58 33.3a.91.91 0 0 0-.92-.81"/></g></g></svg>