<svg fill="#000000" id="a" xmlns="http://www.w3.org/2000/svg" viewBox="0 0 100 100"><g><path d="M90,12.03s0-.05,0-.08c0-.02,0-.04,0-.06,0-.04-.01-.08-.02-.12,0-.07-.02-.14-.03-.21-.02-.07-.04-.13-.06-.2-.02-.05-.04-.11-.06-.16-.03-.07-.07-.14-.11-.21-.02-.04-.04-.08-.07-.11-.05-.07-.1-.13-.15-.19-.03-.03-.06-.07-.09-.1-.05-.05-.11-.1-.17-.14-.05-.04-.09-.07-.15-.11-.05-.03-.1-.06-.15-.08-.07-.04-.14-.07-.21-.1-.04-.02-.08-.03-.12-.04-.09-.03-.17-.05-.26-.07-.05,0-.09-.01-.14-.02-.06,0-.11-.02-.17-.02-.02,0-.05,0-.07,0-.02,0-.05,0-.07,0-1.07,.06-26.33,1.6-40.3,15.58-4.2,4.2-7.35,8.48-9.73,12.43-.05,0-.1-.02-.15-.02h-12.7c-.53,0-1.04,.21-1.41,.59l-13.01,13.01c-.57,.57-.74,1.43-.43,2.18s1.04,1.23,1.85,1.23H30.28c.09,.14,.18,.28,.31,.41l1,1,4.59,4.59-7.59,7.59c-.78,.78-.78,2.05,0,2.83,.39,.39,.9,.59,1.41,.59s1.02-.2,1.41-.59l7.59-7.59,5.36,5.36,.22,.22c.13,.13,.27,.22,.41,.31v18.28c0,.81,.49,1.54,1.23,1.85,.25,.1,.51,.15,.77,.15,.52,0,1.03-.2,1.41-.59l13-13c.38-.38,.59-.88,.59-1.41v-13s-.01-.09-.01-.13c4.27-2.56,8.93-5.96,13.43-10.46,14.01-14.01,14.57-38.35,14.59-39.38ZM25.83,42h9.81c-1.85,3.64-3,6.77-3.68,9h-15.14s9-9,9-9Zm32.17,32.17l-9,9v-15.26c2.24-.75,5.38-1.97,9-3.83v10.09Zm-12.4-9.4l-3.77-3.77,6.59-6.59c.78-.78,.78-2.05,0-2.83s-2.05-.78-2.83,0l-6.59,6.59-3.82-3.82c.8-3.39,4.22-14.93,15.23-25.94,10.6-10.6,29.09-13.5,35.46-14.21-.48,6.2-2.77,23.86-13.29,34.38-11.01,11.01-23.38,15.16-26.98,16.19Z"/><path d="M62.84,28.62c-2.27,0-4.41,.89-6.03,2.51-1.62,1.62-2.51,3.76-2.51,6.03s.89,4.41,2.51,6.03c1.62,1.62,3.76,2.51,6.03,2.51s4.41-.89,6.03-2.51c1.62-1.62,2.51-3.76,2.51-6.03s-.89-4.41-2.51-6.03c-1.62-1.62-3.76-2.51-6.03-2.51Zm3.2,11.74c-.86,.86-2,1.34-3.2,1.34s-2.34-.47-3.2-1.34-1.34-2-1.34-3.2,.47-2.34,1.34-3.2,2-1.34,3.2-1.34,2.34,.47,3.2,1.34,1.34,2,1.34,3.2-.47,2.34-1.34,3.2Z"/></g></svg>